<svg width="23" height="22" viewBox="0 0 23 22" fill="none" xmlns="http://www.w3.org/2000/svg">
<path fill-rule="evenodd" clip-rule="evenodd" d="M0 0.78125C0 0.349778 0.349778 0 0.78125 0H2.76176C3.54191 0 4.23558 0.496452 4.48723 1.2349L4.97507 2.66641H17.9684C20.701 2.66641 22.9163 4.88167 22.9163 7.61433V11.9293C22.9163 14.662 20.701 16.8773 17.9684 16.8773H10.1726C7.77734 16.8773 5.72603 15.1615 5.30261 12.804L3.65742 3.64383L3.00825 1.73891C2.9723 1.63342 2.87321 1.5625 2.76176 1.5625H0.78125C0.349778 1.5625 0 1.21272 0 0.78125ZM5.35 4.22891L6.8405 12.5278C7.13021 14.1409 8.53374 15.3148 10.1726 15.3148H17.9684C19.8381 15.3148 21.3538 13.7991 21.3538 11.9293V7.61433C21.3538 5.74461 19.8381 4.22891 17.9684 4.22891H5.35Z" fill="white"/>
<path fill-rule="evenodd" clip-rule="evenodd" d="M8.85156 19.7916C8.85156 18.9287 9.55112 18.2291 10.4141 18.2291H10.4245C11.2874 18.2291 11.987 18.9287 11.987 19.7916C11.987 20.6546 11.2874 21.3541 10.4245 21.3541H10.4141C9.55112 21.3541 8.85156 20.6546 8.85156 19.7916Z" fill="white"/>
<path fill-rule="evenodd" clip-rule="evenodd" d="M17.1855 19.7916C17.1855 18.9287 17.8851 18.2291 18.748 18.2291H18.7585C19.6214 18.2291 20.321 18.9287 20.321 19.7916C20.321 20.6546 19.6214 21.3541 18.7585 21.3541H18.748C17.8851 21.3541 17.1855 20.6546 17.1855 19.7916Z" fill="white"/>
</svg>
