<svg width="24" height="22" viewBox="0 0 24 22" fill="none" xmlns="http://www.w3.org/2000/svg">
<path d="M8.25 7.65891C8.25 8.07313 8.58579 8.40891 9 8.40891C9.41421 8.40891 9.75 8.07313 9.75 7.65891H8.25ZM4.875 14.5678L5.40663 14.0388L4.875 14.5678ZM18.625 14.5678L18.0934 14.0388L18.625 14.5678ZM13.125 20.095L13.6566 20.624L13.125 20.095ZM10.375 20.095L9.84337 20.624L10.375 20.095ZM9.75 7.65891C9.75 4.25396 12.4957 1.5 15.875 1.5V0C11.6604 0 8.25 3.4325 8.25 7.65891H9.75ZM15.875 1.5C19.2543 1.5 22 4.25396 22 7.65891H23.5C23.5 3.4325 20.0896 0 15.875 0V1.5ZM7.625 0C3.41035 0 0 3.4325 0 7.65891H1.5C1.5 4.25396 4.24573 1.5 7.625 1.5V0ZM12.2019 1.53269C10.9274 0.570685 9.34164 0 7.625 0V1.5C9.0038 1.5 10.2745 1.95722 11.2982 2.7299L12.2019 1.53269ZM0 7.65891C0 9.2406 0.593715 10.5964 1.42144 11.7979C2.24025 12.9865 3.32272 14.0712 4.34337 15.0969L5.40663 14.0388C4.36478 12.9918 3.38475 12.0038 2.65669 10.947C1.93754 9.90307 1.5 8.84079 1.5 7.65891H0ZM22 7.65891C22 8.84079 21.5625 9.90307 20.8433 10.947C20.1152 12.0038 19.1352 12.9918 18.0934 14.0388L19.1566 15.0969C20.1773 14.0712 21.2598 12.9865 22.0786 11.7979C22.9063 10.5964 23.5 9.2406 23.5 7.65891H22ZM18.0934 14.0388L12.5934 19.5659L13.6566 20.624L19.1566 15.0969L18.0934 14.0388ZM4.34337 15.0969L9.84337 20.624L10.9066 19.5659L5.40663 14.0388L4.34337 15.0969ZM12.5934 19.5659C12.2607 19.9003 11.9716 20 11.75 20C11.5284 20 11.2393 19.9003 10.9066 19.5659L9.84337 20.624C10.3798 21.163 11.0311 21.5 11.75 21.5C12.4689 21.5 13.1202 21.163 13.6566 20.624L12.5934 19.5659Z" fill="white"/>
</svg>
