<svg width="26" height="25" viewBox="0 0 26 25" fill="none" xmlns="http://www.w3.org/2000/svg">
<path d="M0.75 0.75H4.98529C6.54469 0.75 7.80882 2.01853 7.80882 3.58333M7.80882 3.58333V10.6667M7.80882 3.58333H10.6078C14.5199 3.58333 17.6912 6.75465 17.6912 10.6667M7.80882 17.75C6.24943 17.75 4.98529 19.0185 4.98529 20.5833C4.98529 22.1481 6.24943 23.4167 7.80882 23.4167C8.86352 23.4167 9.78315 22.8364 10.2679 21.9766M7.80882 17.75C9.36822 17.75 10.6324 19.0185 10.6324 20.5833C10.6324 21.0898 10.4999 21.5652 10.2679 21.9766M7.80882 17.75V10.6667M24.75 22H23.3382M10.2679 21.9766C10.3872 21.992 10.5089 22 10.6324 22H23.3382M7.80882 10.6667H17.6912M23.3382 22V16.3137C23.3382 13.1949 20.81 10.6667 17.6912 10.6667" stroke="black" stroke-width="1.5" stroke-linecap="round"/>
</svg>
