<svg width="17" height="17" viewBox="0 0 17 17" fill="none" xmlns="http://www.w3.org/2000/svg">
<path d="M3.54102 9.03806C3.54102 8.07631 3.54102 7.59544 3.73543 7.17275C3.92984 6.75006 4.29494 6.43711 5.02515 5.81122L5.73349 5.20408C7.05334 4.07278 7.71326 3.50713 8.49935 3.50713C9.28544 3.50713 9.94536 4.07278 11.2652 5.20408L11.9735 5.81122C12.7038 6.43711 13.0689 6.75006 13.2633 7.17275C13.4577 7.59544 13.4577 8.07632 13.4577 9.03806L13.4577 12.0417C13.4577 13.3773 13.4577 14.0451 13.0427 14.4601C12.6278 14.875 11.96 14.875 10.6243 14.875L6.37435 14.875C5.0387 14.875 4.37088 14.875 3.95595 14.4601C3.54102 14.0451 3.54102 13.3773 3.54102 12.0417L3.54102 9.03806Z" stroke="black" stroke-opacity="0.3" stroke-width="1.5"/>
<path d="M10.2702 14.875L10.2702 11.625C10.2702 11.0727 9.82247 10.625 9.27018 10.625L7.72852 10.625C7.17623 10.625 6.72852 11.0727 6.72852 11.625L6.72852 14.875" stroke="black" stroke-opacity="0.3" stroke-width="1.5" stroke-linecap="round" stroke-linejoin="round"/>
</svg>
