<svg width="184" height="30" viewBox="0 0 184 30" fill="none" xmlns="http://www.w3.org/2000/svg">
<path d="M80.625 28.7308L76 17.0769L69.375 0.115385H69L62.5 16.6154C61 15.4615 59 14.7692 56.375 14.4231L55.75 14.3077L56.375 14.1923C60.625 13.5 63.625 10.9615 63.625 7.96154C63.625 3.80769 59.375 0.923077 53.375 0.923077H40.125V1.38462H44.25V22.6154L35.375 0.115385H35L23.75 28.6154C23.625 28.6154 23.5 28.6154 23.25 28.6154C23 28.6154 22.75 28.6154 22.625 28.6154H13.75L31.125 0.923077H9.75V9.69231H10.125C10.125 5.53846 12.75 1.38462 18.625 1.38462H25.25L7.875 29.0769H31.625V20.7692H31.25C31.25 24.3462 29 27.8077 24.25 28.6154L27.875 19.6154H38.125L41.75 28.8462H38.375V29.1923H52V28.8462H48.875V14.6538H53.125C57.5 14.6538 60 16.3846 60 19.5V22.0385C60 22.2692 60 22.5 60 22.8462L57.75 28.7308H55.125V29.0769H60.75V28.7308H58.125L60 23.8846V24.2308V24.5769C60.375 26.5385 61.125 27.9231 62.375 28.8462L62.5 28.9615C63.5 29.5385 64.75 29.8846 66.125 29.8846C68 29.8846 69.125 29.4231 70.125 28.5L69.875 28.2692C69 29.0769 68.125 29.4231 67.25 29.4231C65.5 29.4231 64.75 27.5769 64.75 25.7308V22.2692C64.75 21.3462 64.625 20.4231 64.25 19.7308H71.875L75.5 28.9615H72V29.3077H83.875V28.9615L80.625 28.7308ZM28 19.1538L33 6.46154L38 19.1538H28ZM48.875 14.3077V1.5H52.125C56.5 1.5 58.75 3.69231 58.75 8.19231C58.75 13.0385 57.375 14.3077 53.125 14.3077H48.875ZM64.375 19.1538C64 18.4615 63.5 17.7692 63 17.1923L62.875 17.0769L67 6.46154L72 19.1538H64.375Z" fill="black"/>
<path d="M175.5 20.8846C175.5 25.1538 172.75 28.7308 165.875 28.7308H160.75V14.7692H162.625C166.125 14.7692 168.125 16.5 168.125 19.1538H168.5V9.80769H168.125C168.125 12.5769 166.125 14.3077 162.625 14.3077H160.75V1.38462H166C171.375 1.38462 173.5 4.5 173.5 8.19231H173.875V1.03846H146.75L138.75 22.7308L130 1.03846H121V1.5H124.875V12C123.5 5.42308 118 0.461539 111.25 0.461539C104.5 0.461539 99 5.30769 97.625 11.8846V1.5H101.5V1.03846H89V1.5H92.875V14.3077H80.5V1.38462H84.375V1.03846H71.875V1.5H75.75V17.0769L80.375 28.7308V14.6538H92.75V28.7308H88.875V29.0769H101.375V28.7308H97.5V18.2308C98.875 24.8077 104.375 29.6538 111.125 29.6538C117.875 29.6538 123.5 24.6923 124.75 18.1154V28.7308H120.25V29.0769H129.625V28.7308H125.125V1.5L136.375 29.7692H136.5L146.75 2.30769V28.6154H142.75V28.9615H175.875V20.7692H175.5V20.8846ZM116.625 27.6923C115.125 28.8462 113.375 29.3077 111.125 29.3077C108.875 29.3077 107.125 28.8462 105.625 27.6923C103.25 25.8462 102 22.0385 102 15.1154C102 8.19231 103.25 4.38462 105.625 2.53846C107.125 1.38462 108.875 0.923078 111.125 0.923078C113.375 0.923078 115.125 1.38462 116.625 2.53846C118.875 4.26923 120.25 8.07692 120.25 15C120.25 22.0385 118.875 25.8462 116.625 27.6923ZM156.25 28.7308H151.5V1.5H156.25V28.7308Z" fill="black"/>
</svg>
