<svg width="20" height="24" viewBox="0 0 20 24" fill="none" xmlns="http://www.w3.org/2000/svg">
<path fill-rule="evenodd" clip-rule="evenodd" d="M0.824219 2.18207C0.824219 1.78036 1.10008 1.45471 1.44037 1.45471H3.00233C3.61761 1.45471 4.16469 1.91692 4.36316 2.60442L4.7479 3.93718H14.9953C17.1505 3.93718 18.8976 5.99962 18.8976 8.54377V12.5611C18.8976 15.1053 17.1505 17.1677 14.9953 17.1677H8.84704C6.95797 17.1677 5.34017 15.5703 5.00623 13.3754L3.70871 4.84717L3.19674 3.07367C3.16838 2.97545 3.09023 2.90942 3.00233 2.90942H1.44037C1.10008 2.90942 0.824219 2.58378 0.824219 2.18207ZM5.0436 5.39189L6.21912 13.1183C6.4476 14.6201 7.55452 15.713 8.84704 15.713H14.9953C16.4699 15.713 17.6653 14.3019 17.6653 12.5611V8.54377C17.6653 6.80303 16.4699 5.39189 14.9953 5.39189H5.0436Z" fill="white"/>
<path fill-rule="evenodd" clip-rule="evenodd" d="M7.80469 19.881C7.80469 19.0776 8.35641 18.4263 9.03698 18.4263H9.0452C9.72578 18.4263 10.2775 19.0776 10.2775 19.881C10.2775 20.6845 9.72578 21.3358 9.0452 21.3358H9.03698C8.35641 21.3358 7.80469 20.6845 7.80469 19.881Z" fill="white"/>
<path fill-rule="evenodd" clip-rule="evenodd" d="M14.3789 19.881C14.3789 19.0776 14.9306 18.4263 15.6112 18.4263H15.6194C16.3 18.4263 16.8517 19.0776 16.8517 19.881C16.8517 20.6845 16.3 21.3358 15.6194 21.3358H15.6112C14.9306 21.3358 14.3789 20.6845 14.3789 19.881Z" fill="white"/>
</svg>
