<svg width="24" height="24" viewBox="0 0 24 24" fill="none" xmlns="http://www.w3.org/2000/svg">
<path d="M8 22L7.46967 22.5303L8 23.0607L8.53033 22.5303L8 22ZM8.75 3C8.75 2.58579 8.41421 2.25 8 2.25C7.58579 2.25 7.25 2.58579 7.25 3L8.75 3ZM3.46967 18.5303L7.46967 22.5303L8.53033 21.4697L4.53033 17.4697L3.46967 18.5303ZM8.53033 22.5303L12.5303 18.5303L11.4697 17.4697L7.46967 21.4697L8.53033 22.5303ZM8.75 22L8.75 3L7.25 3L7.25 22L8.75 22Z" fill="#222222"/>
<path d="M16 2L15.4697 1.46967L16 0.939339L16.5303 1.46967L16 2ZM16.75 11C16.75 11.4142 16.4142 11.75 16 11.75C15.5858 11.75 15.25 11.4142 15.25 11L16.75 11ZM11.4697 5.46967L15.4697 1.46967L16.5303 2.53033L12.5303 6.53033L11.4697 5.46967ZM16.5303 1.46967L20.5303 5.46967L19.4697 6.53033L15.4697 2.53033L16.5303 1.46967ZM16.75 2L16.75 11L15.25 11L15.25 2L16.75 2Z" fill="#222222"/>
</svg>
